<svg width="516" height="512" viewBox="0 0 516 512" fill="none" xmlns="http://www.w3.org/2000/svg">
<rect width="512" height="512" rx="50" fill="black"/>
<g filter="url(#filter0_g_65_8)">
<path d="M171.53 255.626L182.761 269.786L189.23 277.599C201.763 293.061 208.029 309.418 208.029 326.671C208.029 343.435 202.495 358.124 191.428 370.738C176.291 388.072 156.475 396.739 131.979 396.739C113.018 396.739 97.4743 390.88 85.3486 379.161C73.223 367.524 67.1602 352.59 67.1602 334.361C67.1602 312.063 76.6003 293.468 95.4805 278.575C105.49 270.681 114.727 266.734 123.19 266.734C127.585 266.734 131.166 267.996 133.933 270.519C136.7 273.041 138.083 276.297 138.083 280.284C138.083 285.655 134.909 290.294 128.562 294.2L118.796 300.182C113.181 303.681 108.501 308.564 104.758 314.83C101.014 321.096 99.1426 327.281 99.1426 333.385C99.1426 343.069 102.398 351.044 108.908 357.311C115.5 363.658 123.841 366.832 133.933 366.832C145.082 366.832 154.766 362.641 162.985 354.259C171.205 345.958 175.314 336.152 175.314 324.84C175.314 317.678 173.646 311.168 170.31 305.309C166.973 299.449 159.771 290.375 148.703 278.087C140.972 269.542 135.438 262.055 132.102 255.626H99.1426C87.9121 255.626 82.2969 251.76 82.2969 244.029C82.2969 238.414 84.25 234.101 88.1562 231.09C92.1439 227.997 97.7184 226.451 104.88 226.451H125.754C127.382 210.338 134.746 197.032 147.849 186.534C160.951 175.955 176.657 170.665 194.968 170.665C208.721 170.665 219.911 174.449 228.537 182.018C237.245 189.586 241.599 199.392 241.599 211.437C241.599 227.468 234.722 239.757 220.969 248.302C213.156 253.185 200.746 255.626 183.737 255.626H171.53ZM156.882 226.451H186.179C202.699 226.451 210.959 221.65 210.959 212.047C210.959 208.303 209.25 205.292 205.832 203.014C202.495 200.735 198.02 199.596 192.404 199.596C183.615 199.596 175.599 202.322 168.356 207.774C161.195 213.227 157.37 219.452 156.882 226.451ZM441.794 201.549L366.721 328.014C360.373 338.674 352.927 344.005 344.382 344.005C332.256 344.005 326.193 336.396 326.193 321.178L324.24 239.024C324.24 224.132 322.938 214.122 320.334 208.995C317.811 203.787 312.888 201.183 305.563 201.183C298.809 201.183 292.176 204.682 285.666 211.681C279.237 218.598 276.022 225.678 276.022 232.921C276.022 238.862 277.854 243.622 281.516 247.203C285.259 250.702 290.223 252.452 296.408 252.452C297.873 252.452 299.338 252.411 300.803 252.33C302.512 252.249 303.529 252.208 303.854 252.208C313.701 252.208 318.625 256.318 318.625 264.537C318.625 269.99 315.817 274.547 310.202 278.209C304.668 281.79 297.67 283.58 289.206 283.58C275.778 283.58 264.751 279.104 256.125 270.152C247.58 261.119 243.308 249.645 243.308 235.729C243.308 218.964 250.144 203.95 263.815 190.685C277.569 177.338 293.112 170.665 310.446 170.665C327.211 170.665 339.621 176.402 347.678 187.877C350.689 192.19 352.764 198.049 353.903 205.455C355.124 212.861 355.734 224.05 355.734 239.024V287.364L414.938 186.656L417.99 181.407C420.025 177.908 422.222 175.548 424.582 174.327C426.942 173.106 430.523 172.496 435.324 172.496L440.085 172.374H461.569C472.881 172.374 478.537 176.28 478.537 184.093C478.537 189.545 476.543 193.818 472.556 196.91C468.568 200.003 463.034 201.549 455.954 201.549H441.794Z" fill="url(#paint0_radial_65_8)"/>
</g>
<mask id="path-3-outside-1_65_8" maskUnits="userSpaceOnUse" x="63" y="166" width="420" height="235" fill="black">
<rect fill="white" x="63" y="166" width="420" height="235"/>
<path d="M171.53 255.626L182.761 269.786L189.23 277.599C201.763 293.061 208.029 309.418 208.029 326.671C208.029 343.435 202.495 358.124 191.428 370.738C176.291 388.072 156.475 396.739 131.979 396.739C113.018 396.739 97.4743 390.88 85.3486 379.161C73.223 367.524 67.1602 352.59 67.1602 334.361C67.1602 312.063 76.6003 293.468 95.4805 278.575C105.49 270.681 114.727 266.734 123.19 266.734C127.585 266.734 131.166 267.996 133.933 270.519C136.7 273.041 138.083 276.297 138.083 280.284C138.083 285.655 134.909 290.294 128.562 294.2L118.796 300.182C113.181 303.681 108.501 308.564 104.758 314.83C101.014 321.096 99.1426 327.281 99.1426 333.385C99.1426 343.069 102.398 351.044 108.908 357.311C115.5 363.658 123.841 366.832 133.933 366.832C145.082 366.832 154.766 362.641 162.985 354.259C171.205 345.958 175.314 336.152 175.314 324.84C175.314 317.678 173.646 311.168 170.31 305.309C166.973 299.449 159.771 290.375 148.703 278.087C140.972 269.542 135.438 262.055 132.102 255.626H99.1426C87.9121 255.626 82.2969 251.76 82.2969 244.029C82.2969 238.414 84.25 234.101 88.1562 231.09C92.1439 227.997 97.7184 226.451 104.88 226.451H125.754C127.382 210.338 134.746 197.032 147.849 186.534C160.951 175.955 176.657 170.665 194.968 170.665C208.721 170.665 219.911 174.449 228.537 182.018C237.245 189.586 241.599 199.392 241.599 211.437C241.599 227.468 234.722 239.757 220.969 248.302C213.156 253.185 200.746 255.626 183.737 255.626H171.53ZM156.882 226.451H186.179C202.699 226.451 210.959 221.65 210.959 212.047C210.959 208.303 209.25 205.292 205.832 203.014C202.495 200.735 198.02 199.596 192.404 199.596C183.615 199.596 175.599 202.322 168.356 207.774C161.195 213.227 157.37 219.452 156.882 226.451ZM441.794 201.549L366.721 328.014C360.373 338.674 352.927 344.005 344.382 344.005C332.256 344.005 326.193 336.396 326.193 321.178L324.24 239.024C324.24 224.132 322.938 214.122 320.334 208.995C317.811 203.787 312.888 201.183 305.563 201.183C298.809 201.183 292.176 204.682 285.666 211.681C279.237 218.598 276.022 225.678 276.022 232.921C276.022 238.862 277.854 243.622 281.516 247.203C285.259 250.702 290.223 252.452 296.408 252.452C297.873 252.452 299.338 252.411 300.803 252.33C302.512 252.249 303.529 252.208 303.854 252.208C313.701 252.208 318.625 256.318 318.625 264.537C318.625 269.99 315.817 274.547 310.202 278.209C304.668 281.79 297.67 283.58 289.206 283.58C275.778 283.58 264.751 279.104 256.125 270.152C247.58 261.119 243.308 249.645 243.308 235.729C243.308 218.964 250.144 203.95 263.815 190.685C277.569 177.338 293.112 170.665 310.446 170.665C327.211 170.665 339.621 176.402 347.678 187.877C350.689 192.19 352.764 198.049 353.903 205.455C355.124 212.861 355.734 224.05 355.734 239.024V287.364L414.938 186.656L417.99 181.407C420.025 177.908 422.222 175.548 424.582 174.327C426.942 173.106 430.523 172.496 435.324 172.496L440.085 172.374H461.569C472.881 172.374 478.537 176.28 478.537 184.093C478.537 189.545 476.543 193.818 472.556 196.91C468.568 200.003 463.034 201.549 455.954 201.549H441.794Z"/>
</mask>
<path d="M171.53 255.626V251.626H163.253L168.396 258.112L171.53 255.626ZM182.761 269.786L179.627 272.272L179.653 272.305L179.68 272.337L182.761 269.786ZM189.23 277.599L192.338 275.08L192.325 275.064L192.311 275.047L189.23 277.599ZM191.428 370.738L188.421 368.1L188.415 368.107L191.428 370.738ZM85.3486 379.161L88.1284 376.285L88.1184 376.275L85.3486 379.161ZM95.4805 278.575L93.0035 275.434L93.0032 275.435L95.4805 278.575ZM128.562 294.2L130.651 297.611L130.658 297.607L128.562 294.2ZM118.796 300.182L116.707 296.771L116.693 296.779L116.68 296.787L118.796 300.182ZM108.908 357.311L111.683 354.429L111.682 354.429L108.908 357.311ZM162.985 354.259L160.143 351.444L160.136 351.451L160.129 351.458L162.985 354.259ZM148.703 278.087L151.675 275.41L151.669 275.403L148.703 278.087ZM132.102 255.626L135.652 253.783L134.532 251.626H132.102V255.626ZM88.1562 231.09L90.5983 234.258L90.6075 234.251L88.1562 231.09ZM125.754 226.451V230.451H129.37L129.734 226.853L125.754 226.451ZM147.849 186.534L150.35 189.656L150.356 189.651L150.362 189.646L147.849 186.534ZM228.537 182.018L225.899 185.024L225.906 185.031L225.913 185.037L228.537 182.018ZM220.969 248.302L218.858 244.904L218.849 244.91L220.969 248.302ZM156.882 226.451L152.892 226.173L152.593 230.451H156.882V226.451ZM205.832 203.014L203.576 206.317L203.595 206.329L203.613 206.342L205.832 203.014ZM168.356 207.774L165.951 204.579L165.942 204.585L165.933 204.592L168.356 207.774ZM171.53 255.626L168.396 258.112L179.627 272.272L182.761 269.786L185.895 267.301L174.664 253.14L171.53 255.626ZM182.761 269.786L179.68 272.337L186.15 280.15L189.23 277.599L192.311 275.047L185.842 267.235L182.761 269.786ZM189.23 277.599L186.123 280.117C198.171 294.982 204.029 310.473 204.029 326.671H208.029H212.029C212.029 308.363 205.355 291.14 192.338 275.08L189.23 277.599ZM208.029 326.671H204.029C204.029 342.463 198.849 356.215 188.421 368.1L191.428 370.738L194.434 373.376C206.142 360.034 212.029 344.407 212.029 326.671H208.029ZM191.428 370.738L188.415 368.107C174.091 384.51 155.404 392.739 131.979 392.739V396.739V400.739C157.545 400.739 178.491 391.635 194.441 373.369L191.428 370.738ZM131.979 396.739V392.739C113.915 392.739 99.4131 387.191 88.1284 376.285L85.3486 379.161L82.5689 382.037C95.5354 394.569 112.121 400.739 131.979 400.739V396.739ZM85.3486 379.161L88.1184 376.275C76.8496 365.46 71.1602 351.604 71.1602 334.361H67.1602H63.1602C63.1602 353.577 69.5964 369.587 82.5789 382.047L85.3486 379.161ZM67.1602 334.361H71.1602C71.1602 313.394 79.9524 295.918 97.9577 281.716L95.4805 278.575L93.0032 275.435C73.2481 291.017 63.1602 310.732 63.1602 334.361H67.1602ZM95.4805 278.575L97.9574 281.716C107.603 274.11 115.98 270.734 123.19 270.734V266.734V262.734C113.473 262.734 103.378 267.253 93.0035 275.434L95.4805 278.575ZM123.19 266.734V270.734C126.772 270.734 129.333 271.738 131.238 273.474L133.933 270.519L136.628 267.563C132.998 264.254 128.398 262.734 123.19 262.734V266.734ZM133.933 270.519L131.238 273.474C133.114 275.186 134.083 277.339 134.083 280.284H138.083H142.083C142.083 275.254 140.285 270.897 136.628 267.563L133.933 270.519ZM138.083 280.284H134.083C134.083 283.759 132.138 287.303 126.465 290.794L128.562 294.2L130.658 297.607C137.68 293.285 142.083 287.552 142.083 280.284H138.083ZM128.562 294.2L126.472 290.789L116.707 296.771L118.796 300.182L120.885 303.593L130.651 297.611L128.562 294.2ZM118.796 300.182L116.68 296.787C110.471 300.656 105.359 306.023 101.324 312.779L104.758 314.83L108.192 316.881C111.643 311.104 115.89 306.706 120.911 303.576L118.796 300.182ZM104.758 314.83L101.324 312.779C97.2829 319.543 95.1426 326.429 95.1426 333.385H99.1426H103.143C103.143 328.134 104.746 322.65 108.192 316.881L104.758 314.83ZM99.1426 333.385H95.1426C95.1426 344.07 98.78 353.114 106.134 360.192L108.908 357.311L111.682 354.429C106.016 348.975 103.143 342.068 103.143 333.385H99.1426ZM108.908 357.311L106.134 360.192C113.55 367.334 122.923 370.832 133.933 370.832V366.832V362.832C124.76 362.832 117.45 359.983 111.683 354.429L108.908 357.311ZM133.933 366.832V370.832C146.218 370.832 156.914 366.163 165.841 357.059L162.985 354.259L160.129 351.458C152.618 359.119 143.945 362.832 133.933 362.832V366.832ZM162.985 354.259L165.828 357.073C174.762 348.051 179.314 337.244 179.314 324.84H175.314H171.314C171.314 335.06 167.648 343.865 160.143 351.444L162.985 354.259ZM175.314 324.84H179.314C179.314 317.029 177.487 309.829 173.786 303.329L170.31 305.309L166.834 307.288C169.805 312.507 171.314 318.328 171.314 324.84H175.314ZM170.31 305.309L173.786 303.329C170.211 297.052 162.738 287.693 151.675 275.41L148.703 278.087L145.731 280.764C156.804 293.058 163.735 301.846 166.834 307.288L170.31 305.309ZM148.703 278.087L151.669 275.403C144.05 266.982 138.766 259.784 135.652 253.783L132.102 255.626L128.551 257.469C132.11 264.326 137.894 272.102 145.737 280.771L148.703 278.087ZM132.102 255.626V251.626H99.1426V255.626V259.626H132.102V255.626ZM99.1426 255.626V251.626C93.8622 251.626 90.6107 250.695 88.7764 249.432C87.2117 248.355 86.2969 246.784 86.2969 244.029H82.2969H78.2969C78.2969 249.006 80.1896 253.233 84.2402 256.022C88.0212 258.624 93.1925 259.626 99.1426 259.626V255.626ZM82.2969 244.029H86.2969C86.2969 239.459 87.8195 236.4 90.5983 234.258L88.1562 231.09L85.7142 227.922C80.6805 231.802 78.2969 237.369 78.2969 244.029H82.2969ZM88.1562 231.09L90.6075 234.251C93.6529 231.889 98.2433 230.451 104.88 230.451V226.451V222.451C97.1935 222.451 90.6349 224.106 85.705 227.929L88.1562 231.09ZM104.88 226.451V230.451H125.754V226.451V222.451H104.88V226.451ZM125.754 226.451L129.734 226.853C131.249 211.851 138.051 199.51 150.35 189.656L147.849 186.534L145.347 183.413C131.442 194.554 123.514 208.825 121.774 226.049L125.754 226.451ZM147.849 186.534L150.362 189.646C162.689 179.693 177.486 174.665 194.968 174.665V170.665V166.665C175.828 166.665 159.213 172.217 145.336 183.422L147.849 186.534ZM194.968 170.665V174.665C207.953 174.665 218.141 178.218 225.899 185.024L228.537 182.018L231.175 179.011C221.68 170.68 209.489 166.665 194.968 166.665V170.665ZM228.537 182.018L225.913 185.037C233.704 191.808 237.599 200.492 237.599 211.437H241.599H245.599C245.599 198.292 240.786 187.364 231.161 178.999L228.537 182.018ZM241.599 211.437H237.599C237.599 226.069 231.451 237.08 218.858 244.904L220.969 248.302L223.08 251.699C237.993 242.434 245.599 228.868 245.599 211.437H241.599ZM220.969 248.302L218.849 244.91C212.012 249.182 200.537 251.626 183.737 251.626V255.626V259.626C200.954 259.626 214.3 257.187 223.089 251.694L220.969 248.302ZM183.737 255.626V251.626H171.53V255.626V259.626H183.737V255.626ZM156.882 226.451V230.451H186.179V226.451V222.451H156.882V226.451ZM186.179 226.451V230.451C194.695 230.451 201.736 229.237 206.774 226.308C212.144 223.187 214.959 218.264 214.959 212.047H210.959H206.959C206.959 215.432 205.644 217.712 202.754 219.392C199.531 221.265 194.182 222.451 186.179 222.451V226.451ZM210.959 212.047H214.959C214.959 206.819 212.454 202.621 208.051 199.685L205.832 203.014L203.613 206.342C206.046 207.964 206.959 209.788 206.959 212.047H210.959ZM205.832 203.014L208.088 199.71C203.874 196.832 198.521 195.596 192.404 195.596V199.596V203.596C197.518 203.596 201.117 204.638 203.576 206.317L205.832 203.014ZM192.404 199.596V195.596C182.718 195.596 173.863 198.622 165.951 204.579L168.356 207.774L170.762 210.97C177.335 206.022 184.512 203.596 192.404 203.596V199.596ZM168.356 207.774L165.933 204.592C158.133 210.531 153.481 217.719 152.892 226.173L156.882 226.451L160.872 226.73C161.259 221.186 164.257 215.923 170.78 210.957L168.356 207.774ZM441.794 201.549V197.549H439.517L438.354 199.507L441.794 201.549ZM366.721 328.014L370.158 330.06L370.16 330.056L366.721 328.014ZM326.193 321.178H330.193V321.13L330.192 321.083L326.193 321.178ZM324.24 239.024H320.24V239.072L320.241 239.119L324.24 239.024ZM320.334 208.995L316.734 210.739L316.751 210.773L316.768 210.807L320.334 208.995ZM285.666 211.681L282.737 208.956L282.736 208.958L285.666 211.681ZM281.516 247.203L278.719 250.063L278.751 250.095L278.784 250.125L281.516 247.203ZM300.803 252.33L300.612 248.335L300.597 248.335L300.581 248.336L300.803 252.33ZM310.202 278.209L312.375 281.567L312.381 281.563L312.387 281.559L310.202 278.209ZM256.125 270.152L253.219 272.901L253.232 272.915L253.245 272.928L256.125 270.152ZM263.815 190.685L266.601 193.555L266.601 193.555L263.815 190.685ZM347.678 187.877L350.958 185.587L350.951 185.578L347.678 187.877ZM353.903 205.455L349.95 206.063L349.953 206.084L349.957 206.106L353.903 205.455ZM355.734 287.364H351.734V302.061L359.183 289.391L355.734 287.364ZM414.938 186.656L418.387 188.683L418.392 188.675L418.397 188.667L414.938 186.656ZM417.99 181.407L414.532 179.397L417.99 181.407ZM435.324 172.496V176.496H435.375L435.427 176.495L435.324 172.496ZM440.085 172.374V168.374H440.034L439.982 168.375L440.085 172.374ZM472.556 196.91L475.007 200.071L472.556 196.91ZM441.794 201.549L438.354 199.507L363.281 325.972L366.721 328.014L370.16 330.056L445.234 203.591L441.794 201.549ZM366.721 328.014L363.284 325.967C357.3 336.017 350.936 340.005 344.382 340.005V344.005V348.005C354.917 348.005 363.446 341.332 370.158 330.06L366.721 328.014ZM344.382 344.005V340.005C339.207 340.005 335.957 338.427 333.869 335.805C331.642 333.011 330.193 328.362 330.193 321.178H326.193H322.193C322.193 329.211 323.776 335.976 327.612 340.791C331.586 345.779 337.431 348.005 344.382 348.005V344.005ZM326.193 321.178L330.192 321.083L328.239 238.929L324.24 239.024L320.241 239.119L322.194 321.273L326.193 321.178ZM324.24 239.024H328.24C328.24 231.478 327.911 225.067 327.23 219.832C326.558 214.663 325.508 210.349 323.9 207.184L320.334 208.995L316.768 210.807C317.764 212.768 318.667 216.023 319.297 220.864C319.918 225.638 320.24 231.678 320.24 239.024H324.24ZM320.334 208.995L323.934 207.251C320.553 200.272 313.933 197.183 305.563 197.183V201.183V205.183C311.843 205.183 315.069 207.301 316.734 210.739L320.334 208.995ZM305.563 201.183V197.183C297.301 197.183 289.683 201.489 282.737 208.956L285.666 211.681L288.595 214.405C294.67 207.875 300.317 205.183 305.563 205.183V201.183ZM285.666 211.681L282.736 208.958C275.834 216.383 272.022 224.391 272.022 232.921H276.022H280.022C280.022 226.965 282.639 220.813 288.596 214.404L285.666 211.681ZM276.022 232.921H272.022C272.022 239.751 274.163 245.609 278.719 250.063L281.516 247.203L284.312 244.343C281.544 241.636 280.022 237.972 280.022 232.921H276.022ZM281.516 247.203L278.784 250.125C283.416 254.455 289.431 256.452 296.408 256.452V252.452V248.452C291.016 248.452 287.102 246.95 284.247 244.281L281.516 247.203ZM296.408 252.452V256.452C297.947 256.452 299.486 256.409 301.025 256.324L300.803 252.33L300.581 248.336C299.19 248.414 297.799 248.452 296.408 248.452V252.452ZM300.803 252.33L300.993 256.326C301.843 256.285 302.513 256.255 303.007 256.235C303.255 256.225 303.452 256.218 303.602 256.214C303.677 256.212 303.736 256.21 303.782 256.209C303.804 256.209 303.822 256.208 303.835 256.208C303.841 256.208 303.846 256.208 303.85 256.208C303.853 256.208 303.855 256.208 303.854 256.208V252.208V248.208C303.409 248.208 302.269 248.256 300.612 248.335L300.803 252.33ZM303.854 252.208V256.208C308.32 256.208 310.924 257.155 312.369 258.361C313.676 259.452 314.625 261.253 314.625 264.537H318.625H322.625C322.625 259.602 321.112 255.238 317.496 252.219C314.017 249.316 309.236 248.208 303.854 248.208V252.208ZM318.625 264.537H314.625C314.625 268.318 312.798 271.741 308.017 274.859L310.202 278.209L312.387 281.559C318.837 277.353 322.625 271.662 322.625 264.537H318.625ZM310.202 278.209L308.029 274.851C303.303 277.909 297.115 279.58 289.206 279.58V283.58V287.58C298.224 287.58 306.033 285.671 312.375 281.567L310.202 278.209ZM289.206 283.58V279.58C276.768 279.58 266.813 275.479 259.005 267.377L256.125 270.152L253.245 272.928C262.69 282.729 274.788 287.58 289.206 287.58V283.58ZM256.125 270.152L259.031 267.404C251.274 259.204 247.308 248.754 247.308 235.729H243.308H239.308C239.308 250.535 243.886 263.034 253.219 272.901L256.125 270.152ZM243.308 235.729H247.308C247.308 220.197 253.59 206.179 266.601 193.555L263.815 190.685L261.03 187.814C246.697 201.72 239.308 217.731 239.308 235.729H243.308ZM263.815 190.685L266.601 193.555C279.694 180.85 294.266 174.665 310.446 174.665V170.665V166.665C291.958 166.665 275.443 173.827 261.03 187.814L263.815 190.685ZM310.446 170.665V174.665C326.198 174.665 337.249 179.985 344.404 190.175L347.678 187.877L350.951 185.578C341.993 172.82 328.223 166.665 310.446 166.665V170.665ZM347.678 187.877L344.398 190.167C346.943 193.812 348.867 199.023 349.95 206.063L353.903 205.455L357.857 204.847C356.661 197.076 354.435 190.569 350.958 185.587L347.678 187.877ZM353.903 205.455L349.957 206.106C351.122 213.176 351.734 224.099 351.734 239.024H355.734H359.734C359.734 224.002 359.126 212.545 357.85 204.805L353.903 205.455ZM355.734 239.024H351.734V287.364H355.734H359.734V239.024H355.734ZM355.734 287.364L359.183 289.391L418.387 188.683L414.938 186.656L411.49 184.629L352.286 285.337L355.734 287.364ZM414.938 186.656L418.397 188.667L421.448 183.418L417.99 181.407L414.532 179.397L411.48 184.646L414.938 186.656ZM417.99 181.407L421.448 183.418C423.286 180.257 425.002 178.613 426.42 177.88L424.582 174.327L422.744 170.774C419.442 172.482 416.763 175.559 414.532 179.397L417.99 181.407ZM424.582 174.327L426.42 177.88C427.92 177.104 430.724 176.496 435.324 176.496V172.496V168.496C430.321 168.496 425.964 169.109 422.744 170.774L424.582 174.327ZM435.324 172.496L435.427 176.495L440.187 176.373L440.085 172.374L439.982 168.375L435.222 168.497L435.324 172.496ZM440.085 172.374V176.374H461.569V172.374V168.374H440.085V172.374ZM461.569 172.374V176.374C466.889 176.374 470.169 177.315 472.022 178.595C473.608 179.69 474.537 181.292 474.537 184.093H478.537H482.537C482.537 179.081 480.638 174.823 476.568 172.012C472.766 169.386 467.562 168.374 461.569 168.374V172.374ZM478.537 184.093H474.537C474.537 188.424 473.028 191.482 470.104 193.749L472.556 196.91L475.007 200.071C480.059 196.153 482.537 190.667 482.537 184.093H478.537ZM472.556 196.91L470.104 193.749C467.052 196.116 462.497 197.549 455.954 197.549V201.549V205.549C463.572 205.549 470.084 203.889 475.007 200.071L472.556 196.91ZM455.954 201.549V197.549H441.794V201.549V205.549H455.954V201.549Z" fill="white" mask="url(#path-3-outside-1_65_8)"/>
<defs>
<filter id="filter0_g_65_8" x="30.1602" y="133.665" width="485.377" height="300.074" filterUnits="userSpaceOnUse" color-interpolation-filters="sRGB">
<feFlood flood-opacity="0" result="BackgroundImageFix"/>
<feBlend mode="normal" in="SourceGraphic" in2="BackgroundImageFix" result="shape"/>
<feTurbulence type="fractalNoise" baseFrequency="1.25 1.25" numOctaves="3" seed="458" />
<feDisplacementMap in="shape" scale="74" xChannelSelector="R" yChannelSelector="G" result="displacedImage" width="100%" height="100%" />
<feMerge result="effect1_texture_65_8">
<feMergeNode in="displacedImage"/>
</feMerge>
</filter>
<radialGradient id="paint0_radial_65_8" cx="0" cy="0" r="1" gradientTransform="matrix(-206.425 115.534 -115.548 -206.399 285.658 278)" gradientUnits="userSpaceOnUse">
<stop stop-color="#FF0762"/>
<stop offset="0.307692" stop-color="#08BAD9"/>
<stop offset="0.759615" stop-color="#DED717"/>
<stop offset="1" stop-color="#EE0D0D"/>
</radialGradient>
</defs>
</svg>
