<svg width="46" height="44" viewBox="0 0 46 44" fill="none" xmlns="http://www.w3.org/2000/svg">
<rect width="44" height="44" rx="10" fill="black"/>
<g filter="url(#filter0_g_65_8)">
<path d="M15.4824 19.3301L16.3809 20.4629L16.8984 21.0879C17.901 22.3249 18.4023 23.6335 18.4023 25.0137C18.4023 26.3548 17.9596 27.5299 17.0742 28.5391C15.8633 29.9258 14.278 30.6191 12.3184 30.6191C10.8014 30.6191 9.55794 30.1504 8.58789 29.2129C7.61784 28.2819 7.13281 27.0872 7.13281 25.6289C7.13281 23.8451 7.88802 22.3574 9.39844 21.166C10.1992 20.5345 10.9382 20.2188 11.6152 20.2188C11.9668 20.2188 12.2533 20.3197 12.4746 20.5215C12.696 20.7233 12.8066 20.9837 12.8066 21.3027C12.8066 21.7324 12.5527 22.1035 12.0449 22.416L11.2637 22.8945C10.8145 23.1745 10.4401 23.5651 10.1406 24.0664C9.84115 24.5677 9.69141 25.0625 9.69141 25.5508C9.69141 26.3255 9.95182 26.9635 10.4727 27.4648C11 27.9727 11.6673 28.2266 12.4746 28.2266C13.3665 28.2266 14.1413 27.8913 14.7988 27.2207C15.4564 26.5566 15.7852 25.7721 15.7852 24.8672C15.7852 24.2943 15.6517 23.7734 15.3848 23.3047C15.1178 22.8359 14.5417 22.11 13.6562 21.127C13.0378 20.4434 12.5951 19.8444 12.3281 19.3301H9.69141C8.79297 19.3301 8.34375 19.0208 8.34375 18.4023C8.34375 17.9531 8.5 17.6081 8.8125 17.3672C9.13151 17.1198 9.57747 16.9961 10.1504 16.9961H11.8203C11.9505 15.707 12.5397 14.6426 13.5879 13.8027C14.6361 12.9564 15.8926 12.5332 17.3574 12.5332C18.4577 12.5332 19.3529 12.8359 20.043 13.4414C20.7396 14.0469 21.0879 14.8314 21.0879 15.7949C21.0879 17.0775 20.5378 18.0605 19.4375 18.7441C18.8125 19.1348 17.8197 19.3301 16.459 19.3301H15.4824ZM14.3105 16.9961H16.6543C17.9759 16.9961 18.6367 16.612 18.6367 15.8438C18.6367 15.5443 18.5 15.3034 18.2266 15.1211C17.9596 14.9388 17.6016 14.8477 17.1523 14.8477C16.4492 14.8477 15.8079 15.0658 15.2285 15.502C14.6556 15.9382 14.3496 16.4362 14.3105 16.9961ZM37.1035 15.0039L31.0977 25.1211C30.5898 25.974 29.9941 26.4004 29.3105 26.4004C28.3405 26.4004 27.8555 25.7917 27.8555 24.5742L27.6992 18.002C27.6992 16.8105 27.5951 16.0098 27.3867 15.5996C27.1849 15.1829 26.791 14.9746 26.2051 14.9746C25.6647 14.9746 25.1341 15.2546 24.6133 15.8145C24.099 16.3678 23.8418 16.9342 23.8418 17.5137C23.8418 17.9889 23.9883 18.3698 24.2812 18.6562C24.5807 18.9362 24.9779 19.0762 25.4727 19.0762C25.5898 19.0762 25.707 19.0729 25.8242 19.0664C25.9609 19.0599 26.0423 19.0566 26.0684 19.0566C26.8561 19.0566 27.25 19.3854 27.25 20.043C27.25 20.4792 27.0254 20.8438 26.5762 21.1367C26.1335 21.4232 25.5736 21.5664 24.8965 21.5664C23.8223 21.5664 22.9401 21.2083 22.25 20.4922C21.5664 19.7695 21.2246 18.8516 21.2246 17.7383C21.2246 16.3971 21.7715 15.196 22.8652 14.1348C23.9655 13.0671 25.209 12.5332 26.5957 12.5332C27.9368 12.5332 28.9297 12.9922 29.5742 13.9102C29.8151 14.2552 29.9811 14.724 30.0723 15.3164C30.1699 15.9089 30.2188 16.804 30.2188 18.002V21.8691L34.9551 13.8125L35.1992 13.3926C35.362 13.1126 35.5378 12.9238 35.7266 12.8262C35.9154 12.7285 36.2018 12.6797 36.5859 12.6797L36.9668 12.6699H38.6855C39.5905 12.6699 40.043 12.9824 40.043 13.6074C40.043 14.0436 39.8835 14.3854 39.5645 14.6328C39.2454 14.8802 38.8027 15.0039 38.2363 15.0039H37.1035Z" fill="url(#paint0_radial_65_8)"/>
</g>
<mask id="path-3-outside-1_65_8" maskUnits="userSpaceOnUse" x="6" y="11" width="35" height="21" fill="black">
<rect fill="white" x="6" y="11" width="35" height="21"/>
<path d="M15.4824 19.3301L16.3809 20.4629L16.8984 21.0879C17.901 22.3249 18.4023 23.6335 18.4023 25.0137C18.4023 26.3548 17.9596 27.5299 17.0742 28.5391C15.8633 29.9258 14.278 30.6191 12.3184 30.6191C10.8014 30.6191 9.55794 30.1504 8.58789 29.2129C7.61784 28.2819 7.13281 27.0872 7.13281 25.6289C7.13281 23.8451 7.88802 22.3574 9.39844 21.166C10.1992 20.5345 10.9382 20.2188 11.6152 20.2188C11.9668 20.2188 12.2533 20.3197 12.4746 20.5215C12.696 20.7233 12.8066 20.9837 12.8066 21.3027C12.8066 21.7324 12.5527 22.1035 12.0449 22.416L11.2637 22.8945C10.8145 23.1745 10.4401 23.5651 10.1406 24.0664C9.84115 24.5677 9.69141 25.0625 9.69141 25.5508C9.69141 26.3255 9.95182 26.9635 10.4727 27.4648C11 27.9727 11.6673 28.2266 12.4746 28.2266C13.3665 28.2266 14.1413 27.8913 14.7988 27.2207C15.4564 26.5566 15.7852 25.7721 15.7852 24.8672C15.7852 24.2943 15.6517 23.7734 15.3848 23.3047C15.1178 22.8359 14.5417 22.11 13.6562 21.127C13.0378 20.4434 12.5951 19.8444 12.3281 19.3301H9.69141C8.79297 19.3301 8.34375 19.0208 8.34375 18.4023C8.34375 17.9531 8.5 17.6081 8.8125 17.3672C9.13151 17.1198 9.57747 16.9961 10.1504 16.9961H11.8203C11.9505 15.707 12.5397 14.6426 13.5879 13.8027C14.6361 12.9564 15.8926 12.5332 17.3574 12.5332C18.4577 12.5332 19.3529 12.8359 20.043 13.4414C20.7396 14.0469 21.0879 14.8314 21.0879 15.7949C21.0879 17.0775 20.5378 18.0605 19.4375 18.7441C18.8125 19.1348 17.8197 19.3301 16.459 19.3301H15.4824ZM14.3105 16.9961H16.6543C17.9759 16.9961 18.6367 16.612 18.6367 15.8438C18.6367 15.5443 18.5 15.3034 18.2266 15.1211C17.9596 14.9388 17.6016 14.8477 17.1523 14.8477C16.4492 14.8477 15.8079 15.0658 15.2285 15.502C14.6556 15.9382 14.3496 16.4362 14.3105 16.9961ZM37.1035 15.0039L31.0977 25.1211C30.5898 25.974 29.9941 26.4004 29.3105 26.4004C28.3405 26.4004 27.8555 25.7917 27.8555 24.5742L27.6992 18.002C27.6992 16.8105 27.5951 16.0098 27.3867 15.5996C27.1849 15.1829 26.791 14.9746 26.2051 14.9746C25.6647 14.9746 25.1341 15.2546 24.6133 15.8145C24.099 16.3678 23.8418 16.9342 23.8418 17.5137C23.8418 17.9889 23.9883 18.3698 24.2812 18.6562C24.5807 18.9362 24.9779 19.0762 25.4727 19.0762C25.5898 19.0762 25.707 19.0729 25.8242 19.0664C25.9609 19.0599 26.0423 19.0566 26.0684 19.0566C26.8561 19.0566 27.25 19.3854 27.25 20.043C27.25 20.4792 27.0254 20.8438 26.5762 21.1367C26.1335 21.4232 25.5736 21.5664 24.8965 21.5664C23.8223 21.5664 22.9401 21.2083 22.25 20.4922C21.5664 19.7695 21.2246 18.8516 21.2246 17.7383C21.2246 16.3971 21.7715 15.196 22.8652 14.1348C23.9655 13.0671 25.209 12.5332 26.5957 12.5332C27.9368 12.5332 28.9297 12.9922 29.5742 13.9102C29.8151 14.2552 29.9811 14.724 30.0723 15.3164C30.1699 15.9089 30.2188 16.804 30.2188 18.002V21.8691L34.9551 13.8125L35.1992 13.3926C35.362 13.1126 35.5378 12.9238 35.7266 12.8262C35.9154 12.7285 36.2018 12.6797 36.5859 12.6797L36.9668 12.6699H38.6855C39.5905 12.6699 40.043 12.9824 40.043 13.6074C40.043 14.0436 39.8835 14.3854 39.5645 14.6328C39.2454 14.8802 38.8027 15.0039 38.2363 15.0039H37.1035Z"/>
</mask>
<path d="M15.4824 19.3301V18.5301H13.8269L14.8556 19.8272L15.4824 19.3301ZM16.3809 20.4629L15.7541 20.96L15.7593 20.9666L15.7647 20.9731L16.3809 20.4629ZM16.8984 21.0879L17.52 20.5841L17.5146 20.5776L16.8984 21.0879ZM17.0742 28.5391L16.4729 28.0114L16.4716 28.0129L17.0742 28.5391ZM8.58789 29.2129L9.14385 28.6376L9.14184 28.6357L8.58789 29.2129ZM9.39844 21.166L8.90305 20.5378L8.90299 20.5379L9.39844 21.166ZM12.0449 22.416L12.4628 23.0982L12.4642 23.0973L12.0449 22.416ZM11.2637 22.8945L10.8458 22.2123L10.8406 22.2156L11.2637 22.8945ZM10.4727 27.4648L11.0276 26.8886L11.0274 26.8885L10.4727 27.4648ZM14.7988 27.2207L14.2304 26.6578L14.2276 26.6606L14.7988 27.2207ZM13.6562 21.127L14.2507 20.5916L14.2495 20.5902L13.6562 21.127ZM12.3281 19.3301L13.0382 18.9616L12.8143 18.5301H12.3281V19.3301ZM8.8125 17.3672L9.30091 18.0008L9.30276 17.9994L8.8125 17.3672ZM11.8203 16.9961V17.7961H12.5436L12.6163 17.0765L11.8203 16.9961ZM13.5879 13.8027L14.0881 14.4271L14.0905 14.4252L13.5879 13.8027ZM20.043 13.4414L19.5154 14.0428L19.5182 14.0452L20.043 13.4414ZM19.4375 18.7441L19.0153 18.0646L19.0135 18.0657L19.4375 18.7441ZM14.3105 16.9961L13.5125 16.9404L13.4528 17.7961H14.3105V16.9961ZM18.2266 15.1211L17.7754 15.7818L17.7828 15.7867L18.2266 15.1211ZM15.2285 15.502L14.7474 14.8628L14.7439 14.8654L15.2285 15.502ZM15.4824 19.3301L14.8556 19.8272L15.7541 20.96L16.3809 20.4629L17.0077 19.9658L16.1092 18.833L15.4824 19.3301ZM16.3809 20.4629L15.7647 20.9731L16.2823 21.5981L16.8984 21.0879L17.5146 20.5776L16.997 19.9526L16.3809 20.4629ZM16.8984 21.0879L16.2769 21.5916C17.1827 22.7091 17.6023 23.8445 17.6023 25.0137H18.4023H19.2023C19.2023 23.4225 18.6194 21.9406 17.5199 20.5842L16.8984 21.0879ZM18.4023 25.0137H17.6023C17.6023 26.1604 17.2304 27.1481 16.4729 28.0114L17.0742 28.5391L17.6756 29.0667C18.6889 27.9118 19.2023 26.5492 19.2023 25.0137H18.4023ZM17.0742 28.5391L16.4716 28.0129C15.4234 29.2133 14.0639 29.8191 12.3184 29.8191V30.6191V31.4191C14.4921 31.4191 16.3032 30.6383 17.6768 29.0653L17.0742 28.5391ZM12.3184 30.6191V29.8191C10.9808 29.8191 9.94571 29.4126 9.14384 28.6376L8.58789 29.2129L8.03194 29.7881C9.17017 30.8882 10.622 31.4191 12.3184 31.4191V30.6191ZM8.58789 29.2129L9.14184 28.6357C8.34316 27.8692 7.93281 26.8898 7.93281 25.6289H7.13281H6.33281C6.33281 27.2846 6.89252 28.6946 8.03395 29.7901L8.58789 29.2129ZM7.13281 25.6289H7.93281C7.93281 24.1113 8.55845 22.8475 9.89389 21.7941L9.39844 21.166L8.90299 20.5379C7.21759 21.8673 6.33281 23.5788 6.33281 25.6289H7.13281ZM9.39844 21.166L9.89382 21.7942C10.6217 21.2202 11.1888 21.0188 11.6152 21.0188V20.2188V19.4187C10.6875 19.4187 9.77676 19.8488 8.90305 20.5378L9.39844 21.166ZM11.6152 20.2188V21.0188C11.8042 21.0188 11.8867 21.0681 11.9356 21.1126L12.4746 20.5215L13.0136 19.9303C12.6198 19.5712 12.1294 19.4187 11.6152 19.4187V20.2188ZM12.4746 20.5215L11.9356 21.1126C11.9789 21.1521 12.0066 21.1923 12.0066 21.3027H12.8066H13.6066C13.6066 20.7752 13.413 20.2945 13.0136 19.9303L12.4746 20.5215ZM12.8066 21.3027H12.0066C12.0066 21.3532 11.9985 21.5052 11.6256 21.7347L12.0449 22.416L12.4642 23.0973C13.107 22.7018 13.6066 22.1117 13.6066 21.3027H12.8066ZM12.0449 22.416L11.6271 21.7338L10.8458 22.2123L11.2637 22.8945L11.6815 23.5767L12.4628 23.0982L12.0449 22.416ZM11.2637 22.8945L10.8406 22.2156C10.2725 22.5696 9.81174 23.057 9.45384 23.6561L10.1406 24.0664L10.8274 24.4767C11.0685 24.0732 11.3564 23.7794 11.6868 23.5735L11.2637 22.8945ZM10.1406 24.0664L9.45384 23.6561C9.09486 24.257 8.89141 24.892 8.89141 25.5508H9.69141H10.4914C10.4914 25.233 10.5874 24.8784 10.8274 24.4767L10.1406 24.0664ZM9.69141 25.5508H8.89141C8.89141 26.5256 9.22827 27.3775 9.91788 28.0412L10.4727 27.4648L11.0274 26.8885C10.6754 26.5496 10.4914 26.1254 10.4914 25.5508H9.69141ZM10.4727 27.4648L9.91774 28.0411C10.6101 28.7078 11.4836 29.0266 12.4746 29.0266V28.2266V27.4266C11.8511 27.4266 11.3899 27.2375 11.0276 26.8886L10.4727 27.4648ZM12.4746 28.2266V29.0266C13.5938 29.0266 14.5709 28.5958 15.37 27.7808L14.7988 27.2207L14.2276 26.6606C13.7116 27.1868 13.1393 27.4266 12.4746 27.4266V28.2266ZM14.7988 27.2207L15.3673 27.7836C16.1678 26.9752 16.5852 25.9905 16.5852 24.8672H15.7852H14.9852C14.9852 25.5538 14.745 26.1381 14.2304 26.6578L14.7988 27.2207ZM15.7852 24.8672H16.5852C16.5852 24.1644 16.4199 23.5057 16.08 22.9088L15.3848 23.3047L14.6896 23.7006C14.8835 24.0412 14.9852 24.4242 14.9852 24.8672H15.7852ZM15.3848 23.3047L16.08 22.9088C15.7655 22.3566 15.1351 21.5735 14.2507 20.5916L13.6562 21.127L13.0618 21.6623C13.9482 22.6465 14.4702 23.3153 14.6896 23.7006L15.3848 23.3047ZM13.6562 21.127L14.2495 20.5902C13.6533 19.9313 13.2606 19.3902 13.0382 18.9616L12.3281 19.3301L11.6181 19.6986C11.9295 20.2986 12.4222 20.9554 13.063 21.6637L13.6562 21.127ZM12.3281 19.3301V18.5301H9.69141V19.3301V20.1301H12.3281V19.3301ZM9.69141 19.3301V18.5301C9.30916 18.5301 9.16422 18.4598 9.13429 18.4392C9.12929 18.4357 9.1402 18.4435 9.14801 18.4596C9.15398 18.4719 9.14375 18.4601 9.14375 18.4023H8.34375H7.54375C7.54375 18.9338 7.75385 19.4314 8.22704 19.7571C8.64633 20.0457 9.17521 20.1301 9.69141 20.1301V19.3301ZM8.34375 18.4023H9.14375C9.14375 18.1621 9.2139 18.0679 9.30091 18.0008L8.8125 17.3672L8.32409 16.7336C7.7861 17.1483 7.54375 17.7441 7.54375 18.4023H8.34375ZM8.8125 17.3672L9.30276 17.9994C9.43331 17.8981 9.68245 17.7961 10.1504 17.7961V16.9961V16.1961C9.47249 16.1961 8.82971 16.3415 8.32224 16.735L8.8125 17.3672ZM10.1504 16.9961V17.7961H11.8203V16.9961V16.1961H10.1504V16.9961ZM11.8203 16.9961L12.6163 17.0765C12.724 16.0097 13.2006 15.1381 14.0881 14.4271L13.5879 13.8027L13.0877 13.1784C11.8788 14.147 11.177 15.4044 11.0244 16.9157L11.8203 16.9961ZM13.5879 13.8027L14.0905 14.4252C14.9836 13.704 16.0584 13.3332 17.3574 13.3332V12.5332V11.7332C15.7267 11.7332 14.2885 12.2088 13.0853 13.1803L13.5879 13.8027ZM17.3574 12.5332V13.3332C18.304 13.3332 18.999 13.5897 19.5154 14.0428L20.043 13.4414L20.5706 12.84C19.7067 12.0822 18.6114 11.7332 17.3574 11.7332V12.5332ZM20.043 13.4414L19.5182 14.0452C20.0314 14.4913 20.2879 15.0514 20.2879 15.7949H21.0879H21.8879C21.8879 14.6114 21.4478 13.6025 20.5678 12.8376L20.043 13.4414ZM21.0879 15.7949H20.2879C20.2879 16.7975 19.8835 17.5252 19.0153 18.0646L19.4375 18.7441L19.8597 19.4237C21.192 18.5959 21.8879 17.3574 21.8879 15.7949H21.0879ZM19.4375 18.7441L19.0135 18.0657C18.5837 18.3344 17.778 18.5301 16.459 18.5301V19.3301V20.1301C17.8613 20.1301 19.0413 19.9352 19.8615 19.4225L19.4375 18.7441ZM16.459 19.3301V18.5301H15.4824V19.3301V20.1301H16.459V19.3301ZM14.3105 16.9961V17.7961H16.6543V16.9961V16.1961H14.3105V16.9961ZM16.6543 16.9961V17.7961C17.3664 17.7961 18.0312 17.6972 18.5432 17.3996C19.1215 17.0635 19.4367 16.511 19.4367 15.8438H18.6367H17.8367C17.8367 15.9183 17.8217 15.9449 17.8188 15.9499C17.816 15.9548 17.8014 15.9801 17.7391 16.0164C17.5902 16.1029 17.2638 16.1961 16.6543 16.1961V16.9961ZM18.6367 15.8438H19.4367C19.4367 15.2474 19.1407 14.7691 18.6703 14.4555L18.2266 15.1211L17.7828 15.7867C17.8348 15.8214 17.8423 15.8401 17.8384 15.8334C17.837 15.8308 17.8359 15.8279 17.8355 15.8264C17.8352 15.8252 17.8367 15.8301 17.8367 15.8438H18.6367ZM18.2266 15.1211L18.6777 14.4605C18.2353 14.1583 17.7018 14.0477 17.1523 14.0477V14.8477V15.6477C17.5013 15.6477 17.684 15.7193 17.7754 15.7817L18.2266 15.1211ZM17.1523 14.8477V14.0477C16.2698 14.0477 15.4608 14.3257 14.7474 14.8628L15.2285 15.502L15.7097 16.1411C16.1551 15.8058 16.6286 15.6477 17.1523 15.6477V14.8477ZM15.2285 15.502L14.7439 14.8654C14.0432 15.3989 13.5719 16.0894 13.5125 16.9404L14.3105 16.9961L15.1086 17.0518C15.1274 16.783 15.268 16.4774 15.7131 16.1385L15.2285 15.502ZM37.1035 15.0039V14.2039H36.6481L36.4156 14.5955L37.1035 15.0039ZM31.0977 25.1211L31.785 25.5304L31.7856 25.5295L31.0977 25.1211ZM27.8555 24.5742H28.6555V24.5647L28.6552 24.5552L27.8555 24.5742ZM27.6992 18.002H26.8992V18.0115L26.8994 18.021L27.6992 18.002ZM27.3867 15.5996L26.6667 15.9484L26.67 15.9552L26.6735 15.9619L27.3867 15.5996ZM24.6133 15.8145L24.0275 15.2696L24.0273 15.2698L24.6133 15.8145ZM24.2812 18.6562L23.722 19.2283L23.7284 19.2345L23.7349 19.2407L24.2812 18.6562ZM25.8242 19.0664L25.7862 18.2673L25.7798 18.2676L25.8242 19.0664ZM26.5762 21.1367L27.0108 21.8084L27.0132 21.8068L26.5762 21.1367ZM22.25 20.4922L21.6688 21.042L21.6739 21.0473L22.25 20.4922ZM22.8652 14.1348L23.4223 14.7089L23.4224 14.7089L22.8652 14.1348ZM29.5742 13.9102L30.2302 13.4522L30.2289 13.4505L29.5742 13.9102ZM30.0723 15.3164L29.2815 15.4381L29.2829 15.4465L30.0723 15.3164ZM30.2188 21.8691H29.4187V24.8085L30.9084 22.2746L30.2188 21.8691ZM34.9551 13.8125L35.6447 14.2179L35.6467 14.2146L34.9551 13.8125ZM35.1992 13.3926L34.5076 12.9905L35.1992 13.3926ZM36.5859 12.6797V13.4797H36.5962L36.6064 13.4794L36.5859 12.6797ZM36.9668 12.6699V11.8699H36.9565L36.9463 11.8702L36.9668 12.6699ZM39.5645 14.6328L40.0547 15.265L39.5645 14.6328ZM37.1035 15.0039L36.4156 14.5955L30.4097 24.7127L31.0977 25.1211L31.7856 25.5295L37.7914 15.4123L37.1035 15.0039ZM31.0977 25.1211L30.4103 24.7118C29.9753 25.4424 29.5961 25.6004 29.3105 25.6004V26.4004V27.2004C30.3922 27.2004 31.2044 26.5055 31.785 25.5304L31.0977 25.1211ZM29.3105 26.4004V25.6004C29.0032 25.6004 28.8988 25.513 28.8449 25.4453C28.7634 25.343 28.6555 25.098 28.6555 24.5742H27.8555H27.0555C27.0555 25.2679 27.1901 25.936 27.5936 26.4424C28.0247 26.9834 28.6478 27.2004 29.3105 27.2004V26.4004ZM27.8555 24.5742L28.6552 24.5552L28.499 17.9829L27.6992 18.002L26.8994 18.021L27.0557 24.5932L27.8555 24.5742ZM27.6992 18.002H28.4992C28.4992 17.3863 28.4725 16.8511 28.4144 16.4046C28.3581 15.9714 28.2653 15.5628 28.1 15.2373L27.3867 15.5996L26.6735 15.9619C26.7165 16.0466 26.78 16.2434 26.8278 16.611C26.8739 16.9653 26.8992 17.4262 26.8992 18.002H27.6992ZM27.3867 15.5996L28.1067 15.2509C27.7333 14.4801 27 14.1746 26.2051 14.1746V14.9746V15.7746C26.582 15.7746 26.6364 15.8858 26.6667 15.9484L27.3867 15.5996ZM26.2051 14.9746V14.1746C25.3631 14.1746 24.6355 14.616 24.0275 15.2696L24.6133 15.8145L25.199 16.3593C25.6328 15.8931 25.9663 15.7746 26.2051 15.7746V14.9746ZM24.6133 15.8145L24.0273 15.2698C23.4185 15.9249 23.0418 16.6768 23.0418 17.5137H23.8418H24.6418C24.6418 17.1917 24.7795 16.8108 25.1993 16.3591L24.6133 15.8145ZM23.8418 17.5137H23.0418C23.0418 18.1669 23.2502 18.767 23.722 19.2283L24.2812 18.6562L24.8405 18.0842C24.7263 17.9726 24.6418 17.811 24.6418 17.5137H23.8418ZM24.2812 18.6562L23.7349 19.2407C24.2121 19.6867 24.8194 19.8762 25.4727 19.8762V19.0762V18.2762C25.1363 18.2762 24.9493 18.1857 24.8276 18.0718L24.2812 18.6562ZM25.4727 19.0762V19.8762C25.6047 19.8762 25.7367 19.8725 25.8686 19.8652L25.8242 19.0664L25.7798 18.2676C25.6774 18.2733 25.575 18.2762 25.4727 18.2762V19.0762ZM25.8242 19.0664L25.8623 19.8655C25.9298 19.8623 25.982 19.86 26.0198 19.8584C26.0387 19.8577 26.0528 19.8572 26.0627 19.8569C26.0746 19.8565 26.0746 19.8566 26.0684 19.8566V19.0566V18.2566C26.0182 18.2566 25.9124 18.2613 25.7862 18.2673L25.8242 19.0664ZM26.0684 19.0566V19.8566C26.3706 19.8566 26.4483 19.9227 26.4419 19.9174C26.4348 19.9115 26.4314 19.9037 26.4332 19.9081C26.4369 19.9175 26.45 19.9568 26.45 20.043H27.25H28.05C28.05 19.5491 27.8952 19.0463 27.4672 18.6891C27.067 18.355 26.5539 18.2566 26.0684 18.2566V19.0566ZM27.25 20.043H26.45C26.45 20.1448 26.4214 20.2825 26.1392 20.4666L26.5762 21.1367L27.0132 21.8068C27.6294 21.405 28.05 20.8136 28.05 20.043H27.25ZM26.5762 21.1367L26.1416 20.4651C25.8605 20.647 25.4627 20.7664 24.8965 20.7664V21.5664V22.3664C25.6844 22.3664 26.4065 22.1994 27.0108 21.8084L26.5762 21.1367ZM24.8965 21.5664V20.7664C24.0202 20.7664 23.3525 20.4833 22.8261 19.9371L22.25 20.4922L21.6739 21.0473C22.5277 21.9333 23.6243 22.3664 24.8965 22.3664V21.5664ZM22.25 20.4922L22.8312 19.9424C22.3053 19.3865 22.0246 18.6735 22.0246 17.7383H21.2246H20.4246C20.4246 19.0296 20.8276 20.1526 21.6688 21.0419L22.25 20.4922ZM21.2246 17.7383H22.0246C22.0246 16.6438 22.4607 15.6419 23.4223 14.7089L22.8652 14.1348L22.3082 13.5606C21.0823 14.75 20.4246 16.1505 20.4246 17.7383H21.2246ZM22.8652 14.1348L23.4224 14.7089C24.3906 13.7693 25.4398 13.3332 26.5957 13.3332V12.5332V11.7332C24.9782 11.7332 23.5404 12.3648 22.3081 13.5607L22.8652 14.1348ZM26.5957 12.5332V13.3332C27.7343 13.3332 28.4553 13.7087 28.9195 14.3699L29.5742 13.9102L30.2289 13.4505C29.4041 12.2757 28.1394 11.7332 26.5957 11.7332V12.5332ZM29.5742 13.9102L28.9183 14.3681C29.0658 14.5795 29.2017 14.9187 29.2816 15.4381L30.0723 15.3164L30.863 15.1948C30.7606 14.5292 30.5644 13.9309 30.2302 13.4522L29.5742 13.9102ZM30.0723 15.3164L29.2829 15.4465C29.3695 15.972 29.4187 16.8137 29.4187 18.002H30.2188H31.0188C31.0188 16.7944 30.9703 15.8457 30.8616 15.1863L30.0723 15.3164ZM30.2188 18.002H29.4187V21.8691H30.2188H31.0188V18.002H30.2188ZM30.2188 21.8691L30.9084 22.2746L35.6447 14.2179L34.9551 13.8125L34.2654 13.4071L29.5291 21.4637L30.2188 21.8691ZM34.9551 13.8125L35.6467 14.2146L35.8908 13.7947L35.1992 13.3926L34.5076 12.9905L34.2635 13.4104L34.9551 13.8125ZM35.1992 13.3926L35.8908 13.7947C35.9495 13.6938 36.0001 13.6276 36.0386 13.5862C36.0769 13.5451 36.0966 13.5354 36.0941 13.5367L35.7266 12.8262L35.359 12.1156C34.9817 12.3108 34.7097 12.6429 34.5076 12.9905L35.1992 13.3926ZM35.7266 12.8262L36.0941 13.5367C36.094 13.5368 36.1278 13.5202 36.2174 13.5049C36.3047 13.4901 36.4255 13.4797 36.5859 13.4797V12.6797V11.8797C36.1615 11.8797 35.7197 11.929 35.359 12.1156L35.7266 12.8262ZM36.5859 12.6797L36.6064 13.4794L36.9873 13.4697L36.9668 12.6699L36.9463 11.8702L36.5654 11.88L36.5859 12.6797ZM36.9668 12.6699V13.4699H38.6855V12.6699V11.8699H36.9668V12.6699ZM38.6855 12.6699V13.4699C39.0707 13.4699 39.2176 13.5409 39.249 13.5626C39.2548 13.5666 39.2448 13.5597 39.2377 13.545C39.2324 13.5341 39.243 13.5477 39.243 13.6074H40.043H40.843C40.843 13.0738 40.6329 12.5739 40.1582 12.246C39.7371 11.9552 39.2053 11.8699 38.6855 11.8699V12.6699ZM40.043 13.6074H39.243C39.243 13.8193 39.1804 13.9183 39.0742 14.0006L39.5645 14.6328L40.0547 15.265C40.5866 14.8525 40.843 14.2679 40.843 13.6074H40.043ZM39.5645 14.6328L39.0742 14.0006C38.9422 14.103 38.6953 14.2039 38.2363 14.2039V15.0039V15.8039C38.9102 15.8039 39.5486 15.6575 40.0547 15.265L39.5645 14.6328ZM38.2363 15.0039V14.2039H37.1035V15.0039V15.8039H38.2363V15.0039Z" fill="white" mask="url(#path-3-outside-1_65_8)"/>
<defs>
<filter id="filter0_g_65_8" x="2.13281" y="7.5332" width="42.9102" height="28.0859" filterUnits="userSpaceOnUse" color-interpolation-filters="sRGB">
<feFlood flood-opacity="0" result="BackgroundImageFix"/>
<feBlend mode="normal" in="SourceGraphic" in2="BackgroundImageFix" result="shape"/>
<feTurbulence type="fractalNoise" baseFrequency="2 2" numOctaves="3" seed="458" />
<feDisplacementMap in="shape" scale="10" xChannelSelector="R" yChannelSelector="G" result="displacedImage" width="100%" height="100%" />
<feMerge result="effect1_texture_65_8">
<feMergeNode in="displacedImage"/>
</feMerge>
</filter>
<radialGradient id="paint0_radial_65_8" cx="0" cy="0" r="1" gradientTransform="matrix(-17.0191 9.14032 -9.52658 -16.3291 25.1819 21.5)" gradientUnits="userSpaceOnUse">
<stop stop-color="#FF0762"/>
<stop offset="0.307692" stop-color="#08BAD9"/>
<stop offset="0.759615" stop-color="#DED717"/>
<stop offset="1" stop-color="#EE0D0D"/>
</radialGradient>
</defs>
</svg>
