<svg width="512" height="512" viewBox="0 0 512 512" fill="none" xmlns="http://www.w3.org/2000/svg">
<path d="M159.535 73.7245C169.637 71.9998 180.285 74.2014 190.565 81.2977C198.114 87.3847 204.365 96.5678 206.007 106.135C207.223 119.732 204.727 130.029 196.415 140.803C193.701 143.977 190.761 146.852 187.719 149.789L187.708 149.8L187.696 149.812C183.948 153.681 180.625 157.898 177.403 162.148L174.206 166.392L172.936 168.052L172.935 168.053C139.808 211.512 121.086 271.24 127.757 325.933L127.76 325.959L127.765 325.984C129.457 335.674 131.891 346.294 140.117 353.024L140.192 353.085L140.276 353.131C153.135 360.055 167.2 356.632 180.135 352.87L180.149 352.866C183.214 351.927 186.27 350.961 189.316 349.949L190.208 349.652L189.966 348.743C189.46 346.84 189.46 346.838 188.945 344.901C188.494 343.163 188.043 341.425 187.593 339.686L187.591 339.679L186.919 337.169C183.613 324.278 182.613 311.333 182.688 298.006V298.004C182.69 297.287 182.692 296.571 182.695 295.833C182.929 251.916 195.474 198.295 222.165 162.447L222.803 161.596L222.809 161.589C223.689 160.38 223.688 160.379 224.585 159.146C241.856 136.406 264.749 121.231 293.086 116.611C315.761 113.511 338.465 117.604 357.397 130.799C370.887 141.59 380.806 153.928 386.366 170.321L386.367 170.323L387.101 172.476C400.356 213.904 384.255 260.104 365.408 297.487C358.449 310.923 350.251 323.455 340.956 335.401L340.955 335.402C338.898 338.051 337.181 340.294 336.051 343.683L335.327 345.857L337.414 344.911C345.77 341.121 352.711 336.801 359.635 330.772L362.092 328.753L362.104 328.743C372.672 319.773 380.247 308.771 387.362 297.152C394.97 284.751 402.904 275.639 417.216 271.976C428.602 269.76 439.694 271.547 449.44 277.83C459.241 284.972 465.011 294.161 467.008 306.134C468.202 317.158 465.009 327.434 459.84 337.093C454.661 346.773 447.544 355.754 440.97 364.201C435.95 370.433 430.415 376.175 424.723 381.858L424.722 381.86C423.565 383.02 422.417 384.191 421.285 385.378L420.163 386.564C401.192 406.478 376.378 419.537 350.154 427.291L350.152 427.292C348.913 427.662 348.912 427.662 347.648 428.039C335.869 431.362 324.023 432.369 311.754 432.312C310.493 432.307 309.231 432.303 307.931 432.298H307.932C287.379 432.042 266.146 427.637 248.252 417.249L248.149 417.188L248.035 417.154C245.15 416.298 242.883 416.358 240.686 416.983C238.564 417.587 236.502 418.729 234.12 419.915C232.263 420.772 230.402 421.622 228.538 422.464C227.567 422.902 226.597 423.34 225.597 423.792C191.009 438.69 150.539 444.842 114.612 431.817C101.702 426.408 90.7988 419.921 80.6909 410.276L80.689 410.275C79.8201 409.449 78.9511 408.623 78.0562 407.771C60.1852 389.413 51.4507 364.756 46.9849 339.824L46.9839 339.822L46.5864 337.617C34.1813 264.17 61.8136 183.219 103.811 123.586C107.004 119.168 110.35 114.884 113.779 110.627L113.787 110.617C114.485 109.727 115.183 108.836 115.903 107.919L115.904 107.92C120.318 102.38 124.993 97.0914 129.799 91.8641L129.803 91.8602C130.366 91.2408 130.929 90.6213 131.508 89.9833C139.741 81.1461 149.406 75.4537 159.535 73.7245ZM309.042 197.001C301.329 196.672 295.979 200.883 291.096 206.017L291.065 206.051L291.038 206.085C273.289 228.443 263.49 264.864 263.938 293.078L264 297.016L264.038 299.35L265.702 297.713C276.387 287.195 287.354 272.982 295.725 257.517C304.092 242.062 309.907 225.281 310.196 209.64V209.612C310.183 208.216 310.158 206.82 310.125 205.425H310.125L310.098 203.235L310.054 200.604C310.037 199.728 310.019 198.853 310 197.978L309.979 197.041L309.042 197.001Z" fill="url(#paint0_linear_60_2)" stroke="white" stroke-width="2"/>
<defs>
<linearGradient id="paint0_linear_60_2" x1="537.5" y1="245" x2="2.50001" y2="340" gradientUnits="userSpaceOnUse">
<stop offset="0.0576923" stop-color="#EF1A1A"/>
<stop offset="0.298077" stop-color="#4024DD"/>
<stop offset="0.552885" stop-color="#3CB2A4"/>
<stop offset="0.742308" stop-color="#97D338"/>
<stop offset="0.95316" stop-color="#F65600"/>
</linearGradient>
</defs>
</svg>
